<?xml version="1.0" encoding="utf-8"?>
<!-- Generator: Adobe Illustrator 21.1.0, SVG Export Plug-In . SVG Version: 6.00 Build 0)  -->
<svg version="1.1" id="Layer_1" xmlns="http://www.w3.org/2000/svg" xmlns:xlink="http://www.w3.org/1999/xlink" x="0px" y="0px"
	 viewBox="0 0 64 64" style="enable-background:new 0 0 64 64;" xml:space="preserve">
<style type="text/css">
	.st0{fill:none;stroke:#2B2323;stroke-miterlimit:10;}
</style>
<path class="st0" d="M16.2,16.7c3.3-1.5,5.3-1.9,6.1-1.4c1.4,1,4.3,9.3,3.8,10.5c-0.5,1.2-5.7,2.8-5.8,3.5c0,0.7,3.6,14.6,5,15.2
	c1.4,0.5,6.2-2.2,7.4-0.9C34,44.9,38,53.3,36.6,55c-1.4,1.7-8.4,3-9.1,2.5c-0.8-0.4-8.2-5.7-12.9-17.7c-2.8-7.1-3.2-13.8-1.3-19.9
	C13.9,18.5,14.9,17.3,16.2,16.7z"/>
<path class="st0" d="M35.6,21.4c6.4,4.5,9.7,9.9,9.8,15.9"/>
<path class="st0" d="M37.8,10.2c11.9,6.7,17.2,16.1,16,28.4"/>
</svg>
